<?xml version="1.0" encoding="utf-8"?>
<!-- Generator: Adobe Illustrator 19.1.0, SVG Export Plug-In . SVG Version: 6.00 Build 0)  -->
<!DOCTYPE svg PUBLIC "-//W3C//DTD SVG 1.1//EN" "http://www.w3.org/Graphics/SVG/1.1/DTD/svg11.dtd">
<svg version="1.1" id="Layer_1" xmlns="http://www.w3.org/2000/svg" xmlns:xlink="http://www.w3.org/1999/xlink" x="0px" y="0px"
	 width="135px" height="40px" viewBox="0 0 135 40" enable-background="new 0 0 135 40" xml:space="preserve">
<path fill="#292929" d="M130.2,40H4.7C2.1,40,0,37.9,0,35.3V4.7C0,2.1,2.1,0,4.7,0h125.5c2.6,0,4.7,2.1,4.7,4.7v30.5
	C134.9,37.9,132.8,40,130.2,40L130.2,40z"/>
<path fill="#3F3F3F" d="M134,35.3c0,2.1-1.7,3.8-3.8,3.8H4.7c-2.1,0-3.8-1.7-3.8-3.8V4.7c0-2.1,1.7-3.8,3.8-3.8h125.5
	c2.1,0,3.8,1.7,3.8,3.8L134,35.3L134,35.3z"/>
<g display="none">
	<path display="inline" fill="#FFFFFF" d="M30.1,18.8c0-3.2,2.6-4.8,2.8-4.9c-1.5-2.2-3.9-2.5-4.7-2.5c-2-0.2-3.9,1.2-4.9,1.2
		c-1,0-2.6-1.2-4.2-1.1c-2.1,0-4.1,1.3-5.2,3.2c-2.3,3.9-0.6,9.7,1.6,12.9c1.1,1.6,2.4,3.3,4,3.2c1.6-0.1,2.2-1,4.2-1
		c1.9,0,2.5,1,4.2,1c1.7,0,2.8-1.6,3.9-3.1c1.3-1.8,1.8-3.5,1.8-3.6C33.5,23.9,30.2,22.6,30.1,18.8z"/>
	<path display="inline" fill="#FFFFFF" d="M26.9,9.3c0.9-1.1,1.5-2.6,1.3-4.1c-1.3,0.1-2.8,0.9-3.8,1.9c-0.8,0.9-1.5,2.5-1.3,3.9
		C24.6,11.2,26,10.4,26.9,9.3z"/>
	<g display="inline">
		<path fill="#FFFFFF" d="M53.1,28.9H51l-1.2-3.7h-4.1l-1.1,3.7h-2.1l4.1-12.7H49L53.1,28.9z M49.4,23.6l-1.1-3.3
			c-0.1-0.3-0.3-1.1-0.6-2.4h0c-0.1,0.5-0.3,1.3-0.6,2.4L46,23.6H49.4z"/>
		<path fill="#FFFFFF" d="M63.6,24.2c0,1.6-0.4,2.8-1.3,3.7c-0.8,0.8-1.7,1.2-2.8,1.2c-1.2,0-2.1-0.4-2.6-1.3v4.8h-2v-9.9
			c0-1,0-2-0.1-3h1.8l0.1,1.5h0c0.7-1.1,1.7-1.6,3.1-1.6c1.1,0,2,0.4,2.7,1.3C63.3,21.7,63.6,22.8,63.6,24.2z M61.6,24.3
			c0-0.9-0.2-1.6-0.6-2.2c-0.4-0.6-1-0.9-1.8-0.9c-0.5,0-1,0.2-1.4,0.5C57.4,22,57.2,22.4,57,23c-0.1,0.3-0.1,0.5-0.1,0.6v1.5
			c0,0.7,0.2,1.2,0.6,1.7c0.4,0.5,0.9,0.7,1.6,0.7c0.8,0,1.4-0.3,1.8-0.9C61.3,26,61.6,25.2,61.6,24.3z"/>
		<path fill="#FFFFFF" d="M74.2,24.2c0,1.6-0.4,2.8-1.3,3.7c-0.8,0.8-1.7,1.2-2.8,1.2c-1.2,0-2.1-0.4-2.6-1.3v4.8h-2v-9.9
			c0-1,0-2-0.1-3h1.8l0.1,1.5h0c0.7-1.1,1.7-1.6,3.1-1.6c1.1,0,2,0.4,2.7,1.3C73.8,21.7,74.2,22.8,74.2,24.2z M72.1,24.3
			c0-0.9-0.2-1.6-0.6-2.2c-0.4-0.6-1-0.9-1.8-0.9c-0.5,0-1,0.2-1.4,0.5c-0.4,0.3-0.7,0.8-0.8,1.3c-0.1,0.3-0.1,0.5-0.1,0.6v1.5
			c0,0.7,0.2,1.2,0.6,1.7c0.4,0.5,0.9,0.7,1.6,0.7c0.8,0,1.4-0.3,1.8-0.9C71.9,26,72.1,25.2,72.1,24.3z"/>
		<path fill="#FFFFFF" d="M85.9,25.3c0,1.1-0.4,2-1.1,2.6c-0.8,0.7-2,1.1-3.5,1.1c-1.4,0-2.5-0.3-3.3-0.8l0.5-1.7
			c0.9,0.5,1.9,0.8,2.9,0.8c0.8,0,1.4-0.2,1.8-0.5c0.4-0.3,0.6-0.8,0.6-1.4c0-0.5-0.2-0.9-0.5-1.3c-0.4-0.4-0.9-0.7-1.8-1
			c-2.2-0.8-3.3-2-3.3-3.6c0-1,0.4-1.9,1.2-2.6c0.8-0.7,1.8-1,3.1-1c1.2,0,2.1,0.2,2.9,0.6l-0.5,1.7c-0.7-0.4-1.5-0.6-2.4-0.6
			c-0.7,0-1.3,0.2-1.7,0.5c-0.3,0.3-0.5,0.7-0.5,1.2c0,0.5,0.2,0.9,0.6,1.2c0.3,0.3,1,0.6,1.8,1c1.1,0.4,1.9,1,2.4,1.5
			C85.7,23.7,85.9,24.4,85.9,25.3z"/>
		<path fill="#FFFFFF" d="M92.7,21.3h-2.2v4.4c0,1.1,0.4,1.7,1.2,1.7c0.4,0,0.7,0,0.9-0.1l0.1,1.5c-0.4,0.1-0.9,0.2-1.6,0.2
			c-0.8,0-1.4-0.2-1.9-0.7c-0.5-0.5-0.7-1.3-0.7-2.5v-4.6h-1.3v-1.5h1.3V18l2-0.6v2.3h2.2L92.7,21.3z"/>
		<path fill="#FFFFFF" d="M102.8,24.2c0,1.4-0.4,2.6-1.2,3.5c-0.8,0.9-2,1.4-3.4,1.4c-1.3,0-2.4-0.4-3.2-1.3c-0.8-0.9-1.2-2-1.2-3.4
			c0-1.4,0.4-2.6,1.2-3.5c0.8-0.9,1.9-1.4,3.3-1.4c1.3,0,2.4,0.4,3.2,1.3C102.4,21.7,102.8,22.9,102.8,24.2z M100.7,24.3
			c0-0.8-0.2-1.6-0.5-2.2c-0.4-0.7-1-1.1-1.8-1.1c-0.8,0-1.4,0.4-1.9,1.1c-0.4,0.6-0.5,1.3-0.5,2.2c0,0.8,0.2,1.6,0.5,2.2
			c0.4,0.7,1.1,1.1,1.8,1.1c0.8,0,1.4-0.4,1.8-1.1C100.5,25.8,100.7,25.1,100.7,24.3z"/>
		<path fill="#FFFFFF" d="M109.4,21.5c-0.2,0-0.4-0.1-0.6-0.1c-0.7,0-1.3,0.3-1.7,0.8c-0.3,0.5-0.5,1.1-0.5,1.8v4.8h-2v-6.3
			c0-1.1,0-2-0.1-2.9h1.8l0.1,1.8h0.1c0.2-0.6,0.6-1.1,1-1.5c0.5-0.3,0.9-0.5,1.5-0.5c0.2,0,0.4,0,0.5,0L109.4,21.5L109.4,21.5z"/>
		<path fill="#FFFFFF" d="M118.5,23.9c0,0.4,0,0.7-0.1,0.9h-6.1c0,0.9,0.3,1.6,0.9,2.1c0.5,0.4,1.2,0.6,2,0.6c0.9,0,1.7-0.1,2.5-0.4
			l0.3,1.4c-0.9,0.4-1.9,0.6-3.1,0.6c-1.4,0-2.5-0.4-3.3-1.3c-0.8-0.8-1.2-2-1.2-3.4c0-1.4,0.4-2.5,1.1-3.4c0.8-1,1.9-1.5,3.2-1.5
			c1.3,0,2.3,0.5,3,1.5C118.2,21.8,118.5,22.7,118.5,23.9z M116.5,23.3c0-0.6-0.1-1.1-0.4-1.6c-0.4-0.6-0.9-0.8-1.6-0.8
			c-0.7,0-1.2,0.3-1.6,0.8c-0.3,0.4-0.5,1-0.6,1.6L116.5,23.3L116.5,23.3z"/>
	</g>
	
		<text transform="matrix(1 0 0 1 45.227 11.973)" display="inline" fill="#FFFFFF" font-family="'ProximaNova-Bold'" font-size="6.7182px">IOS APP ON THE</text>
</g>
<g>
	<path fill="none" stroke="#FFFFFF" stroke-width="1.2999" stroke-miterlimit="10" d="M28.3,8.8c0.7,0.1,0.8,0.4,0.9,1.1
		c0.1,0.7,2.4,17.1,2.5,17.7c0.1,0.6,0.1,1.2-0.7,1.3c-0.8,0.1-18.8,1.4-19.4,1.4c-1.1,0.1-2,0.3-2.1-0.7C9.5,28.6,7.2,10.1,7,9
		C6.9,7.9,7.1,7.8,7.6,7.6c0.3-0.2,0.6-0.3,0.9-0.3C8.6,7.4,28.3,8.8,28.3,8.8z"/>
	<path fill="#FFFFFF" d="M8,8.6C8.1,9.3,9.9,23,10,24.1c0.1,1.1,0.5,1.2,1.1,1.2c0.6,0,18.7-0.7,19.3-0.8c0.7,0,0.7-0.4,0.6-0.9
		c-0.1-0.5-1.8-13.2-2-13.8c-0.1-0.6-0.3-0.8-1-0.9c0,0-18.5-1.4-19.3-1.4C8,7.5,8,7.9,8,8.6z M8.9,8.7L28.5,10l1.8,13.6l-19.5,0.6
		L8.9,8.7z"/>
	<path fill="none" stroke="#FFFFFF" stroke-width="1.5438" stroke-miterlimit="10" d="M8.6,20.1C8.6,20.2,8.6,20.2,8.6,20.1
		L8.6,20.1c0.1,0,0.1,0,0.1,0l-0.9-7c0,0,0-0.1-0.1-0.1l0,0c0,0-0.1,0-0.1,0.1L8.6,20.1z"/>
	<g>
		<path fill="#FFFFFF" d="M8.2,7.7c0,0-0.1,0.1-0.1,0.1c0,0.1,0,0.3,0,0.6C8.3,9,8.4,9.9,8.6,11c0.4,2.2,0.8,5.1,1.2,8
			c0.4,2.9,0.7,5.8,0.8,8c0,0.5,0.1,1.1,0.1,1.5c0,0.4,0,0.8,0.1,1.1c0.1,0.2,0.2,0.3,0.3,0.4c0.1,0.1,0.2,0.1,0.2,0.1l0,0.4
			c0,0-0.1,0-0.3,0c-0.2-0.1-0.5-0.2-0.7-0.6c-0.1-0.3-0.1-0.4-0.1-0.6c0-0.2-0.1-0.4-0.1-0.6c-0.1-0.4-0.2-0.9-0.3-1.5
			c-0.4-2.2-0.8-5.1-1.2-8c-0.4-2.9-0.6-5.8-0.8-8c-0.1-1.1-0.1-2-0.2-2.7c0-0.3,0-0.6,0.1-0.9c0.1-0.2,0.3-0.3,0.2-0.3L8.2,7.7z"/>
	</g>
	<path fill="none" stroke="#FFFFFF" stroke-width="1.2999" stroke-miterlimit="10" d="M20.2,29.8c-0.2,0.4-0.1,1.1,0,1.5
		c0.1,0.4,0.4,0.7,1.8,0.8c1.8,0.1,4.7,0.2,4.8,0.2s0.2,0,0.2,0.1s0,0.2,0,0.2c0,0,0,0.1-0.2,0.1c-0.1,0-4.6,0.4-5.3,0.5
		c-0.7,0-1.6,0-2-0.1c-0.7,0-3.7-0.3-3.9-0.4c-0.6-0.1-1.3-0.7-0.6-2.6"/>
	<g>
		<path fill="#FFFFFF" d="M15.9,30.3c0,0-0.1,0.2-0.1,0.6c0,0.2-0.1,0.4-0.1,0.6c0,0.2,0,0.4,0,0.4c0,0,0,0,0,0c0,0,0.2,0.1,0.2,0.1
			c0.1,0,0.3,0.1,0.5,0.1c0.4,0.1,0.7,0.1,1.1,0.2c0.4,0,0.8,0.1,1.2,0.2c0.4,0,0.8,0.1,1.2,0.1c0.8,0,1.7,0,2.5,0.1
			c0.8,0,1.6-0.1,2.2-0.1c1.3-0.1,2.2-0.1,2.2-0.1l0.1,0.4c0,0-0.9,0.1-2.1,0.2c-0.6,0.1-1.4,0.2-2.2,0.3l-0.2,0l-0.1,0l-0.1,0
			l-0.3,0c-0.2,0-0.4,0-0.6,0c-0.4,0-0.9,0-1.3,0.1c-0.4,0-0.9,0-1.3,0c-0.4,0-0.9,0-1.3-0.1c-0.4,0-0.8-0.1-1.2-0.1
			c-0.2,0-0.4,0-0.6-0.1c-0.1,0-0.2,0-0.3-0.1c-0.1,0-0.3-0.1-0.4-0.2c-0.5-0.5-0.4-1-0.5-1.3c0-0.3,0.1-0.6,0.1-0.8
			c0.1-0.4,0.1-0.6,0.2-0.6L15.9,30.3z"/>
	</g>
</g>
<g>
	<path fill="#FFFFFF" d="M42.4,11.7V7.4h2c0.9,0,1.4,0.6,1.4,1.4c0,0.7-0.5,1.4-1.4,1.4h-1.1v1.5H42.4z M44.9,8.8
		c0-0.4-0.3-0.6-0.6-0.6h-1v1.2h1C44.7,9.4,44.9,9.2,44.9,8.8z"/>
	<path fill="#FFFFFF" d="M46.4,11.7V7.4h0.9v3.5h1.8v0.8H46.4z"/>
	<path fill="#FFFFFF" d="M52.8,11.7L52.5,11h-1.8l-0.3,0.7h-1L51,7.4h1.1l1.7,4.3H52.8z M51.6,8.4l-0.7,1.8h1.3L51.6,8.4z"/>
	<path fill="#FFFFFF" d="M55,11.7V10l-1.7-2.5h1l1.1,1.7l1.1-1.7h1L55.9,10v1.8H55z"/>
	<path fill="#FFFFFF" d="M59.6,11.7V7.4h0.9v4.3H59.6z"/>
	<path fill="#FFFFFF" d="M64.3,11.7l-2-2.8v2.8h-0.9V7.4h0.9l2,2.7V7.4h0.9v4.3H64.3z"/>
</g>
<g>
	<path fill="#FFFFFF" d="M44.7,27.8v-3.4l-2.6-4.7h1.2l1.1,2.2c0.3,0.6,0.6,1.1,0.8,1.7h0c0.2-0.5,0.5-1.1,0.8-1.7l1.2-2.2h1.2
		l-2.7,4.6v3.4H44.7z"/>
	<path fill="#FFFFFF" d="M53.7,24.8c0,2.1-1.5,3.1-2.9,3.1c-1.6,0-2.8-1.2-2.8-3c0-1.9,1.3-3.1,2.9-3.1C52.6,21.8,53.7,23,53.7,24.8
		z M49.1,24.9c0,1.3,0.7,2.2,1.8,2.2c1,0,1.8-0.9,1.8-2.3c0-1-0.5-2.2-1.7-2.2C49.6,22.6,49.1,23.8,49.1,24.9z"/>
	<path fill="#FFFFFF" d="M59.9,26.2c0,0.6,0,1.1,0,1.6H59l-0.1-0.9h0c-0.3,0.5-0.9,1.1-1.9,1.1c-0.9,0-2-0.5-2-2.5V22h1.1v3.2
		c0,1.1,0.3,1.8,1.3,1.8c0.7,0,1.2-0.5,1.4-1c0.1-0.2,0.1-0.3,0.1-0.5V22h1.1V26.2z"/>
	<path fill="#FFFFFF" d="M61.7,23.8c0-0.7,0-1.3,0-1.8h0.9l0,1.1h0c0.3-0.8,0.9-1.3,1.6-1.3c0.1,0,0.2,0,0.3,0v1c-0.1,0-0.2,0-0.4,0
		c-0.7,0-1.3,0.6-1.4,1.4c0,0.1,0,0.3,0,0.5v3.1h-1V23.8z"/>
	<path fill="#FFFFFF" d="M68.1,27.8c0-0.4,0-1,0-1.5v-7h1v3.6h0c0.4-0.6,1-1.1,2-1.1c1.4,0,2.5,1.2,2.4,3c0,2.1-1.3,3.1-2.6,3.1
		c-0.8,0-1.5-0.3-1.9-1.1h0l0,1H68.1z M69.2,25.4c0,0.1,0,0.3,0,0.4c0.2,0.7,0.8,1.2,1.6,1.2c1.1,0,1.8-0.9,1.8-2.2
		c0-1.2-0.6-2.2-1.7-2.2c-0.7,0-1.4,0.5-1.6,1.3c0,0.1-0.1,0.3-0.1,0.4V25.4z"/>
	<path fill="#FFFFFF" d="M74.9,23.8c0-0.7,0-1.3,0-1.8h0.9l0,1.1h0c0.3-0.8,0.9-1.3,1.6-1.3c0.1,0,0.2,0,0.3,0v1c-0.1,0-0.2,0-0.4,0
		c-0.7,0-1.3,0.6-1.4,1.4c0,0.1,0,0.3,0,0.5v3.1h-1V23.8z"/>
	<path fill="#FFFFFF" d="M84,24.8c0,2.1-1.5,3.1-2.9,3.1c-1.6,0-2.8-1.2-2.8-3c0-1.9,1.3-3.1,2.9-3.1C82.9,21.8,84,23,84,24.8z
		 M79.4,24.9c0,1.3,0.7,2.2,1.8,2.2c1,0,1.8-0.9,1.8-2.3c0-1-0.5-2.2-1.7-2.2C79.9,22.6,79.4,23.8,79.4,24.9z"/>
	<path fill="#FFFFFF" d="M85.7,22l0.8,3c0.2,0.6,0.3,1.2,0.4,1.8h0c0.1-0.6,0.3-1.2,0.5-1.8l0.9-3h0.9l0.9,2.9
		c0.2,0.7,0.4,1.3,0.5,1.9h0c0.1-0.6,0.3-1.2,0.4-1.9L92,22h1l-1.9,5.8h-1L89.3,25c-0.2-0.6-0.4-1.2-0.5-1.9h0
		c-0.1,0.7-0.3,1.3-0.5,1.9l-0.9,2.8h-1L84.6,22H85.7z"/>
	<path fill="#FFFFFF" d="M93.9,26.7c0.3,0.2,0.9,0.4,1.4,0.4c0.8,0,1.1-0.4,1.1-0.9c0-0.5-0.3-0.8-1.1-1.1c-1-0.4-1.5-0.9-1.5-1.6
		c0-0.9,0.8-1.7,2-1.7c0.6,0,1.1,0.2,1.4,0.4L96.9,23c-0.2-0.1-0.6-0.3-1.2-0.3c-0.6,0-1,0.4-1,0.8c0,0.5,0.3,0.7,1.1,1
		c1,0.4,1.5,0.9,1.5,1.8c0,1-0.8,1.7-2.2,1.7c-0.6,0-1.2-0.2-1.6-0.4L93.9,26.7z"/>
	<path fill="#FFFFFF" d="M99.4,25c0,1.4,0.9,2,2,2c0.8,0,1.2-0.1,1.6-0.3l0.2,0.8c-0.4,0.2-1,0.4-1.9,0.4c-1.8,0-2.9-1.2-2.9-2.9
		s1-3.1,2.7-3.1c1.9,0,2.4,1.7,2.4,2.7c0,0.2,0,0.4,0,0.5H99.4z M102.4,24.3c0-0.7-0.3-1.7-1.5-1.7c-1.1,0-1.5,1-1.6,1.7H102.4z"/>
	<path fill="#FFFFFF" d="M104.8,23.8c0-0.7,0-1.3,0-1.8h0.9l0,1.1h0c0.3-0.8,0.9-1.3,1.6-1.3c0.1,0,0.2,0,0.3,0v1
		c-0.1,0-0.2,0-0.4,0c-0.7,0-1.3,0.6-1.4,1.4c0,0.1,0,0.3,0,0.5v3.1h-1V23.8z"/>
</g>
</svg>
